<svg xmlns="http://www.w3.org/2000/svg" version="1.1" xmlns:xlink="http://www.w3.org/1999/xlink" xmlns:svgjs="http://svgjs.dev/svgjs" width="1000" height="128" viewBox="0 0 1000 128"><g transform="matrix(1,0,0,1,-0.6060606060606233,-0.09117984154377723)"><svg viewBox="0 0 396 51" data-background-color="#ffffff" preserveAspectRatio="xMidYMid meet" height="128" width="1000" xmlns="http://www.w3.org/2000/svg" xmlns:xlink="http://www.w3.org/1999/xlink"><g id="tight-bounds" transform="matrix(1,0,0,1,0.2400000000000091,0.03632946811509896)"><svg viewBox="0 0 395.52 50.927341063769795" height="50.927341063769795" width="395.52"><g><svg viewBox="0 0 476.4611321472112 61.349359275108505" height="50.927341063769795" width="395.52"><g transform="matrix(1,0,0,1,80.94113214721122,8.478818828904288)"><svg viewBox="0 0 395.52 44.39172161729993" height="44.39172161729993" width="395.52"><g id="textblocktransform"><svg viewBox="0 0 395.52 44.39172161729993" height="44.39172161729993" width="395.52" id="textblock"><g><svg viewBox="0 0 395.52 44.39172161729993" height="44.39172161729993" width="395.52"><g transform="matrix(1,0,0,1,0,0)"><svg width="395.52" viewBox="2.34 -35.5 320.62 35.99" height="44.39172161729993" data-palette-color="#ee3e38"><path d="M37.33-10.3L37.33-10.3Q37.33-8.42 36.85-6.92 36.38-5.42 35.6-4.27 34.81-3.13 33.76-2.32 32.71-1.51 31.59-1 30.47-0.49 29.31-0.24 28.15 0 27.12 0L27.12 0 2.64 0 2.64-6.35 27.12-6.35Q28.96-6.35 29.97-7.42 30.98-8.5 30.98-10.3L30.98-10.3Q30.98-11.18 30.71-11.91 30.44-12.65 29.94-13.18 29.44-13.72 28.72-14.01 28-14.31 27.12-14.31L27.12-14.31 12.52-14.31Q10.99-14.31 9.2-14.86 7.42-15.41 5.9-16.63 4.37-17.85 3.36-19.82 2.34-21.8 2.34-24.66L2.34-24.66Q2.34-27.51 3.36-29.48 4.37-31.45 5.9-32.68 7.42-33.91 9.2-34.46 10.99-35.01 12.52-35.01L12.52-35.01 34.13-35.01 34.13-28.66 12.52-28.66Q10.72-28.66 9.7-27.56 8.69-26.46 8.69-24.66L8.69-24.66Q8.69-22.83 9.7-21.77 10.72-20.7 12.52-20.7L12.52-20.7 27.12-20.7 27.17-20.7Q28.2-20.68 29.35-20.42 30.49-20.17 31.63-19.63 32.76-19.09 33.79-18.27 34.81-17.46 35.61-16.31 36.4-15.16 36.87-13.67 37.33-12.18 37.33-10.3ZM49-35.01L49-20.7 71.29-20.7 71.29-35.01 77.63-35.01 77.63 0 71.29 0 71.29-14.31 49-14.31 49 0 42.65 0 42.65-35.01 49-35.01ZM121.8-20.85L121.8-14.16Q121.8-10.96 120.7-8.28 119.6-5.59 117.65-3.64 115.69-1.68 113.02-0.6 110.35 0.49 107.2 0.49L107.2 0.49 98.6 0.49Q95.45 0.49 92.77-0.6 90.08-1.68 88.13-3.64 86.18-5.59 85.07-8.28 83.95-10.96 83.95-14.16L83.95-14.16 83.95-20.85Q83.95-24.02 85.07-26.72 86.18-29.42 88.13-31.36 90.08-33.3 92.77-34.4 95.45-35.5 98.6-35.5L98.6-35.5 107.2-35.5Q110.35-35.5 113.02-34.4 115.69-33.3 117.65-31.36 119.6-29.42 120.7-26.72 121.8-24.02 121.8-20.85L121.8-20.85ZM115.45-14.16L115.45-20.85Q115.45-22.73 114.85-24.26 114.25-25.78 113.17-26.87 112.08-27.95 110.55-28.55 109.03-29.15 107.2-29.15L107.2-29.15 98.6-29.15Q96.75-29.15 95.22-28.55 93.7-27.95 92.6-26.87 91.5-25.78 90.9-24.26 90.3-22.73 90.3-20.85L90.3-20.85 90.3-14.16Q90.3-12.28 90.9-10.75 91.5-9.23 92.6-8.14 93.7-7.06 95.22-6.46 96.75-5.86 98.6-5.86L98.6-5.86 107.15-5.86Q109-5.86 110.53-6.46 112.06-7.06 113.15-8.14 114.25-9.23 114.85-10.75 115.45-12.28 115.45-14.16L115.45-14.16ZM162.96-23.24L162.96-20.36Q162.96-18.19 162.42-16.48 161.88-14.77 160.97-13.46 160.05-12.16 158.85-11.23 157.66-10.3 156.35-9.72 155.05-9.13 153.72-8.86 152.39-8.59 151.21-8.59L151.21-8.59 136.86-8.59 136.86-14.94 151.21-14.94Q152.43-15.04 153.42-15.44 154.41-15.84 155.12-16.53 155.83-17.21 156.22-18.18 156.61-19.14 156.61-20.36L156.61-20.36 156.61-23.24Q156.49-24.44 156.1-25.44 155.71-26.44 155.03-27.15 154.36-27.86 153.41-28.26 152.46-28.66 151.21-28.66L151.21-28.66 136.91-28.66Q135.64-28.66 134.98-28 134.32-27.34 134.32-26.1L134.32-26.1 134.32 0 127.97 0 127.97-26.1Q127.97-28.54 128.86-30.25 129.75-31.96 131.08-33.01 132.41-34.06 133.98-34.53 135.54-35.01 136.86-35.01L136.86-35.01 151.21-35.01Q153.36-35.01 155.07-34.46 156.78-33.91 158.09-33 159.39-32.08 160.31-30.88 161.22-29.69 161.82-28.38 162.42-27.08 162.69-25.74 162.96-24.41 162.96-23.24L162.96-23.24ZM203.31-8.91L203.31-7.69Q203.31-6.52 202.91-5.18 202.5-3.83 201.59-2.69 200.67-1.54 199.21-0.77 197.74 0 195.62 0L195.62 0 171.52 0Q170.84 0 170.25-0.24 169.67-0.49 169.24-0.92 168.81-1.34 168.57-1.93 168.32-2.51 168.32-3.2L168.32-3.2 168.32-31.81Q168.32-32.47 168.57-33.06 168.81-33.64 169.24-34.08 169.67-34.52 170.25-34.77 170.84-35.01 171.52-35.01L171.52-35.01 192.76-35.01Q193.94-35.01 195.28-34.59 196.62-34.18 197.78-33.26 198.94-32.35 199.71-30.88 200.48-29.42 200.48-27.29L200.48-27.29 200.48-26.1Q200.48-24.41 199.92-22.47 199.36-20.53 198.11-18.8L198.11-18.8Q199.18-18.14 200.12-17.21 201.06-16.28 201.77-15.06 202.48-13.84 202.9-12.3 203.31-10.77 203.31-8.91L203.31-8.91ZM196.96-7.74L196.96-8.91Q196.96-10.16 196.57-11.15 196.18-12.13 195.47-12.84 194.77-13.55 193.76-13.93 192.76-14.31 191.52-14.31L191.52-14.31 177.21-14.31 177.21-20.7 188.66-20.7Q189.91-20.7 190.91-21.08 191.91-21.46 192.62-22.17 193.32-22.88 193.7-23.86 194.08-24.85 194.08-26.1L194.08-26.1 194.08-27.29Q194.08-28.66 192.76-28.66L192.76-28.66 174.67-28.66 174.67-6.35 195.62-6.35Q195.79-6.35 196.03-6.37 196.28-6.4 196.47-6.52 196.67-6.64 196.82-6.93 196.96-7.23 196.96-7.74L196.96-7.74ZM243.18-31.81L243.18 0 236.83 0 236.83-8.59 214.51-8.59 214.51 0 208.17 0 208.17-17.5Q208.17-21.34 209.48-24.56 210.8-27.78 213.15-30.1 215.49-32.42 218.69-33.72 221.89-35.01 225.67-35.01L225.67-35.01 239.98-35.01Q240.64-35.01 241.22-34.77 241.81-34.52 242.25-34.08 242.69-33.64 242.93-33.06 243.18-32.47 243.18-31.81L243.18-31.81ZM214.51-17.5L214.51-14.94 236.83-14.94 236.83-28.66 225.67-28.66Q225.38-28.66 224.44-28.58 223.5-28.49 222.27-28.15 221.03-27.81 219.67-27.1 218.3-26.39 217.15-25.15 216-23.9 215.26-22.03 214.51-20.17 214.51-17.5L214.51-17.5ZM283.9-35.01L283.9-23.29Q283.9-21.12 283.35-19.41 282.8-17.7 281.89-16.39 280.99-15.09 279.78-14.16 278.57-13.23 277.28-12.63 275.99-12.04 274.66-11.77 273.32-11.5 272.15-11.5L272.15-11.5 269.59-11.5 269.59 0 263.19 0 263.19-11.5 260.65-11.5Q259.48-11.5 258.15-11.77 256.82-12.04 255.51-12.63 254.21-13.23 253.01-14.16 251.82-15.09 250.9-16.39 249.99-17.7 249.44-19.42 248.89-21.14 248.89-23.29L248.89-23.29 248.89-35.01 255.23-35.01 255.23-23.29Q255.23-22.05 255.62-21.06 256.02-20.07 256.72-19.36 257.43-18.65 258.44-18.27 259.46-17.9 260.7-17.9L260.7-17.9 272.15-17.9Q273.06-18.04 274.01-18.27 274.96-18.51 275.74-19.07 276.52-19.63 277.04-20.63 277.55-21.63 277.55-23.29L277.55-23.29 277.55-35.01 283.9-35.01ZM322.96-35.01L322.96-23.29Q322.96-21.12 322.41-19.41 321.86-17.7 320.95-16.39 320.05-15.09 318.84-14.16 317.63-13.23 316.34-12.63 315.05-12.04 313.72-11.77 312.38-11.5 311.21-11.5L311.21-11.5 308.65-11.5 308.65 0 302.25 0 302.25-11.5 299.71-11.5Q298.54-11.5 297.21-11.77 295.88-12.04 294.57-12.63 293.27-13.23 292.07-14.16 290.88-15.09 289.96-16.39 289.05-17.7 288.5-19.42 287.95-21.14 287.95-23.29L287.95-23.29 287.95-35.01 294.29-35.01 294.29-23.29Q294.29-22.05 294.68-21.06 295.08-20.07 295.78-19.36 296.49-18.65 297.5-18.27 298.52-17.9 299.76-17.9L299.76-17.9 311.21-17.9Q312.12-18.04 313.07-18.27 314.02-18.51 314.8-19.07 315.58-19.63 316.1-20.63 316.61-21.63 316.61-23.29L316.61-23.29 316.61-35.01 322.96-35.01Z" opacity="1" transform="matrix(1,0,0,1,0,0)" fill="#ee3e38" class="wordmark-text-0" data-fill-palette-color="primary" id="text-0"></path></svg></g></svg></g></svg></g></svg></g><g><svg viewBox="0 0 70.46131207468552 61.349359275108505" height="61.349359275108505" width="70.46131207468552"><g><svg xmlns="http://www.w3.org/2000/svg" xmlns:xlink="http://www.w3.org/1999/xlink" version="1.1" x="0" y="0" viewBox="1.9809999999999999 9.129000000000001 94.99800119343878 82.713" enable-background="new 0 0 100 100" xml:space="preserve" height="61.349359275108505" width="70.46131207468552" class="icon-icon-0" data-fill-palette-color="accent" id="icon-0"><path fill-rule="evenodd" clip-rule="evenodd" d="M40.699 62.535h35.575c4.942 0 8.948-4.006 8.948-8.947v-5.92c0-4.942-4.006-8.948-8.948-8.948H40.699c-4.942 0-8.948 4.006-8.948 8.948v5.92C31.751 58.53 35.757 62.535 40.699 62.535zM40.7 32.944h35.574c4.942 0 8.949-4.006 8.949-8.948v-5.919c0-4.942-4.006-8.948-8.949-8.948H40.7c-4.942 0-8.949 4.006-8.949 8.948v5.919C31.751 28.938 35.757 32.944 40.7 32.944zM91.371 68.228H25.836V21.494c0.012-0.151-0.032-0.436-0.032-0.588 0-3.099-2.395-5.712-5.497-5.712H7.595c-3.1 0-5.614 2.761-5.614 5.859 0 3.101 2.513 5.985 5.614 5.985H14v41.19h-0.433c-3.098 0-5.609 2.759-5.609 5.856 0 3.099 2.511 5.98 5.609 5.98h6.587c0 0.012-0.004 0.023-0.004 0.036 0 6.483 5.258 11.742 11.744 11.742 6.486 0 11.744-5.258 11.744-11.742 0-0.012-0.004-0.023-0.004-0.036h17.949c0 0.012-0.004 0.023-0.004 0.036 0 6.483 5.258 11.742 11.744 11.742 6.485 0 11.744-5.258 11.744-11.742 0-0.012-0.004-0.023-0.004-0.036h6.306c3.098 0 5.61-2.88 5.61-5.98C96.981 70.987 94.469 68.228 91.371 68.228z" fill="#5e1914" data-fill-palette-color="accent"></path></svg></g></svg></g></svg></g><defs></defs></svg><rect width="395.52" height="50.927341063769795" fill="none" stroke="none" visibility="hidden"></rect></g></svg></g></svg>